# xmcd
#
# Track frame offsets: 
#        150
#        15275
#        39707
#        55039
#        71375
#        93417
#        107829
#        136550
#        154805
#        170902
#        188022
#        212512
#
# Disc length: 3012 seconds
#
# Revision: 1
# Processed by: cddbd v1.5PL3 Copyright (c) Steve Scherf et al.
# Submitted via: ExactAudioCopy v0.95a3
#
DISCID=950bc20c
DTITLE=Julian Sas - Spirits On The Rise
DYEAR=2000
DGENRE=Blues
TTITLE0=Mean Streets
TTITLE1=Morning Rain
TTITLE2=Right Thing
TTITLE3=Hear my Call
TTITLE4=I believe to my Soul
TTITLE5=If I had Wings
TTITLE6=Losing Ground
TTITLE7=Roll on
TTITLE8=Loneliness
TTITLE9=Tale Spreader
TTITLE10=A Light in the Dark
TTITLE11=State of Mind
EXTD=
EXTT0=
EXTT1=
EXTT2=
EXTT3=
EXTT4=
EXTT5=
EXTT6=
EXTT7=
EXTT8=
EXTT9=
EXTT10=
EXTT11=
PLAYORDER=
